PathFileType	4	(X/Y/Z)	C:/Users/opensim2020/Desktop/walking_exp_matlab/subject02_walking12_straight_01.trc																																																																																																																												
DataRate	CameraRate	NumFrames	NumMarkers	Units	OrigDataRate	OrigDataStartFrame	OrigNumFrames																																																																																																																								
100	100	4	42	mm	100	608	178																																																																																																																								
Frame#	Time	LFHD			RFHD			LBHD			RBHD			C7			T10			CLAV			STRN			RBAK			LSHO			LUPA			LELB			LFRM			LWRA			LWRB			LFIN			RSHO			RUPA			RELB			RFRM			RWRA			RWRB			RFIN			LASI			RASI			LPSI			RPSI			LTHI			LKNE			LTIB			LANK			LHEE			LTOE			RTHI			RKNE			RTIB			RANK			RHEE			RTOE			*39			*40			*41		
		X1	Y1	Z1	X2	Y2	Z2	X3	Y3	Z3	X4	Y4	Z4	X5	Y5	Z5	X6	Y6	Z6	X7	Y7	Z7	X8	Y8	Z8	X9	Y9	Z9	X10	Y10	Z10	X11	Y11	Z11	X12	Y12	Z12	X13	Y13	Z13	X14	Y14	Z14	X15	Y15	Z15	X16	Y16	Z16	X17	Y17	Z17	X18	Y18	Z18	X19	Y19	Z19	X20	Y20	Z20	X21	Y21	Z21	X22	Y22	Z22	X23	Y23	Z23	X24	Y24	Z24	X25	Y25	Z25	X26	Y26	Z26	X27	Y27	Z27	X28	Y28	Z28	X29	Y29	Z29	X30	Y30	Z30	X31	Y31	Z31	X32	Y32	Z32	X33	Y33	Z33	X34	Y34	Z34	X35	Y35	Z35	X36	Y36	Z36	X37	Y37	Z37	X38	Y38	Z38	X39	Y39	Z39	X40	Y40	Z40	X41	Y41	Z41	X42	Y42	Z42
																																																																																																																															
112	1.11	77.33382	1720.21655	-1096.15308	48.47375	1694.255	-956.6604	-45.99099	1642.6925	-1135.65247	-86.71746	1615.0752	-1000.62079	-112.55162	1499.63684	-1070.64075	-166.74529	1224.63489	-1053.85461	26.30379	1429.71411	-1076.06445	75.67322	1256.84143	-1072.52905	-176.09004	1325.56995	-1010.86249	-31.56093	1479.79407	-1244.71582	18.92968	1301.22034	-1346.67664	84.76731	1176.43042	-1378.01941	192.03316	1094.45142	-1377.86267	317.26218	1061.422	-1329.59692	292.06845	1024.46289	-1364.57458	355.05127	1004.12164	-1362.33118	-44.41788	1459.01855	-881.18787	-106.33822	1277.13855	-804.43896	-113.80145	1131.08862	-782.40436	-101.78622	1011.27716	-761.39081	-69.01496	879.41205	-778.63367	-117.41416	882.22943	-748.07751	-89.11189	815.0603	-744.13782	34.44966	958.21295	-1212.34521	80.10062	950.68542	-958.57159	-157.487	1009.41693	-1089.28369	-140.91284	1007.81171	-976.51471	-112.21848	665.06433	-1240.58362	-194.47241	478.74765	-1201.7948	-304.96515	318.35199	-1197.66003	-362.79584	98.07408	-1162.7323	-405.17709	81.75965	-1111.85706	-216.66768	31.2129	-1168.14966	73.75304	657.29449	-873.90167	153.88399	467.15268	-924.49719	196.14165	284.78174	-920.25409	269.24756	103.90111	-956.0733	268.80164	41.58764	-1016.79614	427.9411	116.94701	-935.19763	-43.20053	1777.93567	-1026.21277	NaN	NaN	NaN	NaN	NaN	NaN
113	1.12	91.52611	1718.82983	-1095.05054	62.61131	1692.89783	-955.25989	-31.79476	1641.07251	-1134.4657	-72.6553	1613.38538	-999.22272	-98.42296	1498.25098	-1068.88586	-152.77899	1223.19482	-1052.26196	40.3107	1428.0813	-1074.61108	89.71776	1255.27356	-1071.04077	-161.8777	1324.21204	-1008.78833	-17.86412	1477.92798	-1243.28125	31.85615	1299.51526	-1345.60645	97.30452	1174.42322	-1377.29504	205.4772	1093.74866	-1376.97412	331.14001	1062.77356	-1328.36206	306.37177	1025.09937	-1363.18457	369.68976	1005.91754	-1361.19556	-29.64118	1457.52075	-879.37848	-91.9211	1275.63379	-802.69122	-100.49124	1129.60083	-781.47638	-89.96242	1009.71057	-760.74707	-58.86396	877.42908	-778.09265	-107.16077	881.03564	-747.45099	-79.92271	813.37897	-743.74054	48.47562	956.62799	-1211.99231	95.21961	949.58063	-957.76892	-142.85405	1007.40033	-1088.04688	-126.56378	1006.05048	-975.45569	-98.60136	664.24982	-1240.50354	-181.92513	478.89197	-1202.5896	-296.38608	321.01877	-1198.51721	-360.40192	102.27203	-1163.98535	-402.79703	87.72591	-1113.67383	-216.45311	31.20641	-1168.43689	93.85095	657.36011	-873.12213	172.50284	467.13641	-924.82904	210.21194	283.32751	-921.04028	278.59998	101.17204	-958.29669	276.4888	38.90038	-1019.09906	437.3465	110.96577	-938.31885	-29.25239	1776.47058	-1025.27209	2845.22021	1034.27576	-3360.41455	NaN	NaN	NaN
114	1.13	105.71033	1717.42395	-1093.72156	76.70715	1691.67688	-953.88654	-17.60601	1639.53516	-1133.02234	-58.1282	1612.07764	-997.52905	-84.31119	1497.2002	-1066.90564	-138.6116	1221.8678	-1050.53345	54.30366	1426.66077	-1072.93823	103.79443	1253.97949	-1069.35657	-147.77821	1322.87195	-1006.64978	-4.03944	1476.25891	-1241.67969	44.36866	1297.71741	-1344.17993	109.37185	1172.3396	-1376.34497	218.3246	1092.65857	-1375.59302	344.18259	1063.36511	-1327.25146	319.86926	1025.21631	-1361.797	383.36908	1006.99243	-1360.00012	-14.91156	1456.37268	-877.43994	-77.59334	1274.2063	-800.68787	-87.17253	1128.26746	-780.49103	-77.78071	1008.25171	-759.90924	-48.19616	875.57867	-777.50012	-96.33954	879.82507	-746.66534	-70.50642	811.64203	-743.62976	63.11716	955.29254	-1211.41138	110.75541	948.95367	-956.47021	-127.67928	1005.54956	-1087.00134	-112.00895	1004.3219	-974.47949	-84.25848	663.47418	-1240.56885	-168.42717	478.5723	-1203.33655	-286.84	323.96649	-1199.7356	-357.54245	107.00951	-1165.63123	-399.91785	94.3892	-1115.39954	-216.20241	31.25767	-1168.84998	115.04445	657.70691	-872.70862	190.51833	466.89536	-924.74695	222.86823	281.55017	-921.78973	285.86835	97.73572	-960.64337	281.58148	35.70826	-1021.86829	444.34714	104.06686	-941.18323	-15.02432	1775.13708	-1024.03333	NaN	NaN	NaN	NaN	NaN	NaN
115	1.14	119.8279	1715.93298	-1092.18896	90.57576	1690.72546	-952.39264	-3.41543	1638.14124	-1131.41919	-44.12863	1611.01807	-996.01294	-70.28748	1496.02649	-1064.83508	-124.19666	1220.43701	-1048.77917	68.33186	1425.49683	-1071.12732	118.12027	1252.92529	-1067.44177	-134.63853	1322.03625	-1004.25195	9.8581	1474.78699	-1239.88501	56.64883	1295.76208	-1342.16809	120.97174	1170.22449	-1375.14221	230.44136	1091.31177	-1374.26685	356.39972	1063.37317	-1326.3501	332.46249	1024.73596	-1360.25684	396.14957	1007.35083	-1358.75513	-0.48654	1455.17761	-875.44354	-62.9253	1273.15051	-798.64954	-73.46489	1127.08582	-779.48938	-65.86082	1006.8916	-759.11462	-36.84778	874.18378	-776.76367	-85.33347	878.77075	-746.03058	-59.9131	810.20184	-743.09528	78.41876	954.15363	-1210.50635	126.85824	948.8006	-954.85986	-111.9521	1003.85339	-1085.80188	-97.14081	1002.63489	-973.50262	-69.27694	662.87903	-1240.62708	-154.07785	478.48407	-1204.55298	-276.52826	327.12247	-1201.21973	-353.96436	112.76035	-1167.51123	-396.09677	101.56955	-1117.56262	-215.65999	31.43281	-1169.31494	137.10431	658.12097	-872.54541	208.32471	465.9314	-924.586	234.29288	279.15372	-922.61523	291.12143	93.81143	-963.10724	285.103	31.97862	-1024.21851	449.51028	96.22279	-943.95258	-0.97324	1773.99854	-1022.86542	2845.91553	1034.1571	-3356.88379	NaN	NaN	NaN
